# xmcd
#
# Track frame offsets:
#	150
#	24635
#	40792
#	62495
#	85502
#	104655
#	129147
#	157665
#	180840
#	202635
#
# Disc length: 3017 seconds
#
# Revision: 3
# Processed by: cddbd v1.5.1PL2 Copyright (c) Steve Scherf et al.
# Submitted via: audiograbber 1.83.01
#
DISCID=630bc70a
DTITLE=Hazeldine - How Bees Fly
DYEAR=1997
DGENRE=Alternative Rock
TTITLE0=Apothecary
TTITLE1=Tarmac
TTITLE2=My Magdalene
TTITLE3=Yer Shoes
TTITLE4=Allergic to Love
TTITLE5=Rosemary Cries
TTITLE6=Fuzzy
TTITLE7=Daddy
TTITLE8=Bastard Son of Medora
TTITLE9=Postcard
EXTD=
EXTT0=
EXTT1=
EXTT2=
EXTT3=
EXTT4=
EXTT5=
EXTT6=
EXTT7=
EXTT8=
EXTT9=
PLAYORDER=
